<svg width="150" height="112.5" viewBox="0 0 258 73" fill="none" xmlns="http://www.w3.org/2000/svg">
<rect width="258" height="73" rx="12" fill="black"/>
<path d="M38.1093 48.3857L31.5411 25.113H36.0752L40.2684 42.2153H40.4843L44.9616 25.113H49.0866L53.5752 42.2266H53.7798L57.9729 25.113H62.507L55.9388 48.3857H51.7798L47.1207 32.0562H46.9388L42.2684 48.3857H38.1093ZM71.1945 48.7266C69.4445 48.7266 67.9332 48.363 66.6604 47.6357C65.3953 46.9009 64.4218 45.863 63.74 44.5221C63.0582 43.1736 62.7173 41.5865 62.7173 39.7607C62.7173 37.9653 63.0582 36.3895 63.74 35.0334C64.4294 33.6698 65.3915 32.6092 66.6263 31.8516C67.8612 31.0865 69.3119 30.7039 70.9786 30.7039C72.0544 30.7039 73.0695 30.8781 74.0241 31.2266C74.9862 31.5675 75.8347 32.0978 76.5695 32.8175C77.3119 33.5372 77.8953 34.4539 78.3195 35.5675C78.7438 36.6736 78.9559 37.9918 78.9559 39.5221V40.7834H64.6491V38.0107H75.0127C75.0051 37.2228 74.8347 36.5221 74.5013 35.9084C74.168 35.2872 73.7021 34.7986 73.1036 34.4425C72.5127 34.0865 71.8233 33.9084 71.0354 33.9084C70.1945 33.9084 69.4559 34.113 68.8195 34.5221C68.1832 34.9236 67.6869 35.4539 67.3309 36.113C66.9824 36.7645 66.8044 37.4804 66.7968 38.2607V40.6812C66.7968 41.6963 66.9824 42.5675 67.3536 43.2948C67.7248 44.0145 68.2438 44.5675 68.9104 44.9539C69.5771 45.3327 70.3574 45.5221 71.2513 45.5221C71.8498 45.5221 72.3915 45.4387 72.8763 45.2721C73.3612 45.0978 73.7816 44.844 74.1377 44.5107C74.4938 44.1774 74.7627 43.7645 74.9445 43.2721L78.7854 43.7039C78.543 44.719 78.0809 45.6054 77.3991 46.363C76.7248 47.113 75.8612 47.6963 74.8082 48.113C73.7551 48.5221 72.5506 48.7266 71.1945 48.7266ZM82.6178 48.3857V25.113H86.7315V33.8175H86.9019C87.114 33.3933 87.4133 32.9425 87.7996 32.4653C88.186 31.9804 88.7087 31.5675 89.3678 31.2266C90.0269 30.8781 90.8678 30.7039 91.8905 30.7039C93.239 30.7039 94.4549 31.0486 95.5383 31.738C96.6292 32.4198 97.4928 33.4312 98.1292 34.7721C98.7731 36.1054 99.0951 37.7418 99.0951 39.6812C99.0951 41.5978 98.7807 43.2266 98.1519 44.5675C97.5231 45.9084 96.6671 46.9312 95.5837 47.6357C94.5004 48.3403 93.2731 48.6925 91.9019 48.6925C90.9019 48.6925 90.0724 48.5259 89.4133 48.1925C88.7542 47.8592 88.2239 47.4577 87.8224 46.988C87.4284 46.5107 87.1216 46.06 86.9019 45.6357H86.6633V48.3857H82.6178ZM86.6519 39.6584C86.6519 40.7872 86.811 41.7759 87.1292 42.6243C87.4549 43.4728 87.9209 44.1357 88.5269 44.613C89.1405 45.0827 89.883 45.3175 90.7542 45.3175C91.6633 45.3175 92.4246 45.0751 93.0383 44.5903C93.6519 44.0978 94.114 43.4274 94.4246 42.5789C94.7428 41.7228 94.9019 40.7493 94.9019 39.6584C94.9019 38.5751 94.7466 37.613 94.436 36.7721C94.1254 35.9312 93.6633 35.2721 93.0496 34.7948C92.436 34.3175 91.6709 34.0789 90.7542 34.0789C89.8754 34.0789 89.1292 34.31 88.5155 34.7721C87.9019 35.2342 87.436 35.8819 87.1178 36.7153C86.8072 37.5486 86.6519 38.5297 86.6519 39.6584ZM113.825 25.113L119.882 43.4312H120.121L126.166 25.113H130.802L122.598 48.3857H117.393L109.2 25.113H113.825ZM139.538 48.7266C137.788 48.7266 136.277 48.363 135.004 47.6357C133.739 46.9009 132.766 45.863 132.084 44.5221C131.402 43.1736 131.061 41.5865 131.061 39.7607C131.061 37.9653 131.402 36.3895 132.084 35.0334C132.773 33.6698 133.735 32.6092 134.97 31.8516C136.205 31.0865 137.656 30.7039 139.322 30.7039C140.398 30.7039 141.413 30.8781 142.368 31.2266C143.33 31.5675 144.178 32.0978 144.913 32.8175C145.656 33.5372 146.239 34.4539 146.663 35.5675C147.088 36.6736 147.3 37.9918 147.3 39.5221V40.7834H132.993V38.0107H143.356C143.349 37.2228 143.178 36.5221 142.845 35.9084C142.512 35.2872 142.046 34.7986 141.447 34.4425C140.856 34.0865 140.167 33.9084 139.379 33.9084C138.538 33.9084 137.8 34.113 137.163 34.5221C136.527 34.9236 136.031 35.4539 135.675 36.113C135.326 36.7645 135.148 37.4804 135.141 38.2607V40.6812C135.141 41.6963 135.326 42.5675 135.697 43.2948C136.069 44.0145 136.588 44.5675 137.254 44.9539C137.921 45.3327 138.701 45.5221 139.595 45.5221C140.194 45.5221 140.735 45.4387 141.22 45.2721C141.705 45.0978 142.125 44.844 142.481 44.5107C142.838 44.1774 143.106 43.7645 143.288 43.2721L147.129 43.7039C146.887 44.719 146.425 45.6054 145.743 46.363C145.069 47.113 144.205 47.6963 143.152 48.113C142.099 48.5221 140.894 48.7266 139.538 48.7266ZM150.78 48.3857V30.9312H154.768V33.8403H154.95C155.268 32.8327 155.814 32.0562 156.587 31.5107C157.367 30.9577 158.257 30.6812 159.257 30.6812C159.484 30.6812 159.738 30.6925 160.018 30.7153C160.306 30.7304 160.545 30.7569 160.734 30.7948V34.5789C160.56 34.5183 160.284 34.4653 159.905 34.4198C159.534 34.3668 159.174 34.3403 158.825 34.3403C158.075 34.3403 157.401 34.5031 156.802 34.8289C156.212 35.1471 155.746 35.5903 155.405 36.1584C155.064 36.7266 154.893 37.3819 154.893 38.1243V48.3857H150.78ZM177.263 35.5448L173.513 35.9539C173.407 35.5751 173.221 35.219 172.956 34.8857C172.698 34.5524 172.35 34.2834 171.91 34.0789C171.471 33.8743 170.933 33.7721 170.297 33.7721C169.441 33.7721 168.721 33.9577 168.138 34.3289C167.562 34.7001 167.278 35.1812 167.285 35.7721C167.278 36.2797 167.463 36.6925 167.842 37.0107C168.229 37.3289 168.865 37.5903 169.751 37.7948L172.729 38.4312C174.38 38.7872 175.607 39.3516 176.41 40.1243C177.221 40.8971 177.63 41.9084 177.638 43.1584C177.63 44.2569 177.308 45.2266 176.672 46.0675C176.043 46.9009 175.168 47.5524 174.047 48.0221C172.926 48.4918 171.638 48.7266 170.183 48.7266C168.047 48.7266 166.327 48.2797 165.024 47.3857C163.721 46.4842 162.945 45.2304 162.695 43.6243L166.706 43.238C166.888 44.0259 167.274 44.6206 167.865 45.0221C168.456 45.4236 169.225 45.6243 170.172 45.6243C171.149 45.6243 171.933 45.4236 172.524 45.0221C173.123 44.6206 173.422 44.1243 173.422 43.5334C173.422 43.0334 173.229 42.6206 172.842 42.2948C172.463 41.969 171.873 41.719 171.07 41.5448L168.092 40.9198C166.418 40.5713 165.179 39.9842 164.376 39.1584C163.573 38.3251 163.176 37.2721 163.183 35.9993C163.176 34.9236 163.467 33.9918 164.058 33.2039C164.657 32.4084 165.486 31.7948 166.547 31.363C167.615 30.9236 168.846 30.7039 170.24 30.7039C172.285 30.7039 173.895 31.1395 175.07 32.0107C176.251 32.8819 176.982 34.06 177.263 35.5448ZM181.03 48.3857V30.9312H185.143V48.3857H181.03ZM183.098 28.4539C182.446 28.4539 181.886 28.238 181.416 27.8062C180.946 27.3668 180.712 26.8403 180.712 26.2266C180.712 25.6054 180.946 25.0789 181.416 24.6471C181.886 24.2077 182.446 23.988 183.098 23.988C183.757 23.988 184.318 24.2077 184.78 24.6471C185.249 25.0789 185.484 25.6054 185.484 26.2266C185.484 26.8403 185.249 27.3668 184.78 27.8062C184.318 28.238 183.757 28.4539 183.098 28.4539ZM196.987 48.7266C195.283 48.7266 193.805 48.3516 192.555 47.6016C191.305 46.8516 190.336 45.8024 189.646 44.4539C188.964 43.1054 188.624 41.5297 188.624 39.7266C188.624 37.9236 188.964 36.344 189.646 34.988C190.336 33.6319 191.305 32.5789 192.555 31.8289C193.805 31.0789 195.283 30.7039 196.987 30.7039C198.692 30.7039 200.169 31.0789 201.419 31.8289C202.669 32.5789 203.635 33.6319 204.317 34.988C205.006 36.344 205.351 37.9236 205.351 39.7266C205.351 41.5297 205.006 43.1054 204.317 44.4539C203.635 45.8024 202.669 46.8516 201.419 47.6016C200.169 48.3516 198.692 48.7266 196.987 48.7266ZM197.01 45.4312C197.934 45.4312 198.707 45.1774 199.328 44.6698C199.949 44.1547 200.411 43.4653 200.714 42.6016C201.025 41.738 201.18 40.7759 201.18 39.7153C201.18 38.6471 201.025 37.6812 200.714 36.8175C200.411 35.9463 199.949 35.2531 199.328 34.738C198.707 34.2228 197.934 33.9653 197.01 33.9653C196.063 33.9653 195.275 34.2228 194.646 34.738C194.025 35.2531 193.559 35.9463 193.249 36.8175C192.945 37.6812 192.794 38.6471 192.794 39.7153C192.794 40.7759 192.945 41.738 193.249 42.6016C193.559 43.4653 194.025 44.1547 194.646 44.6698C195.275 45.1774 196.063 45.4312 197.01 45.4312ZM212.956 38.1584V48.3857H208.842V30.9312H212.774V33.8971H212.979C213.38 32.9198 214.02 32.1433 214.899 31.5675C215.785 30.9918 216.88 30.7039 218.183 30.7039C219.388 30.7039 220.437 30.9615 221.331 31.4766C222.232 31.9918 222.929 32.738 223.422 33.7153C223.922 34.6925 224.168 35.8781 224.16 37.2721V48.3857H220.047V37.9084C220.047 36.7418 219.744 35.8289 219.138 35.1698C218.539 34.5107 217.71 34.1812 216.649 34.1812C215.929 34.1812 215.289 34.3403 214.729 34.6584C214.176 34.969 213.74 35.4198 213.422 36.0107C213.111 36.6016 212.956 37.3175 212.956 38.1584Z" fill="white"/>
</svg>
